<svg xmlns="http://www.w3.org/2000/svg">

    <symbol viewBox="0 0 16 16" id="search">
        <path fill-rule="evenodd" clip-rule="evenodd" d="M12.2126 9.62182C13.8418 7.52948 13.6946 4.5024 11.7712 2.57894C9.68843 0.496147 6.31152 0.496147 4.22873 2.57894C2.14593 4.66174 2.14593 8.03862 4.22873 10.1214C6.15218 12.0449 9.17929 12.192 11.2716 10.5629C11.2806 10.5731 11.29 10.5831 11.2998 10.5928L14.1282 13.4212C14.3886 13.6816 14.8107 13.6816 15.071 13.4212C15.3314 13.1609 15.3314 12.7388 15.071 12.4784L12.2426 9.65002C12.2328 9.64028 12.2228 9.63088 12.2126 9.62182ZM10.8284 3.52175C12.3905 5.08385 12.3905 7.61648 10.8284 9.17862C9.26629 10.7407 6.73363 10.7407 5.17153 9.17862C3.60943 7.61648 3.60943 5.08385 5.17153 3.52175C6.73363 1.95965 9.26629 1.95965 10.8284 3.52175Z"/>
    </symbol>

    <symbol viewBox="0 0 17 24" id="sign">
        <path d="M12.2716 11.9477C12.2653 12.1002 12.1984 12.2765 12.087 12.3877L8.45084 16.0146C8.20445 16.2224 7.73198 16.3082 7.45659 16.0679C7.18533 15.8312 7.1934 15.3722 7.46363 15.1345L10.0203 12.5877H0.681774C0.305253 12.5877 0 12.3012 0 11.9477C0 11.5942 0.305253 11.3077 0.681774 11.3077H10.0203L7.46363 8.7609C7.23099 8.54213 7.18799 8.06693 7.45659 7.82753C7.72512 7.58815 8.21456 7.66462 8.45084 7.88088L12.087 11.5077C12.2114 11.6318 12.272 11.7774 12.2716 11.9477Z"/>
        <path fill-rule="evenodd" clip-rule="evenodd" d="M15.8182 3.65628C15.8182 1.58439 14.6156 0.804479 13.4638 1.16933L6.37285 4.37535C5.65981 4.6012 5.18182 5.21401 5.18182 5.9023V8.11274H4V5.9023C4 4.75514 4.79665 3.7338 5.98506 3.35738L13.076 0.151361C14.9957 -0.456723 17 0.843132 17 2.69628V21.3037C17 23.1569 14.9957 24.4567 13.076 23.8486L5.98506 22.08C4.79665 21.7036 4 20.6822 4 19.5351V16.7008H5.18182V19.5351C5.18182 20.2234 5.65981 20.8362 6.37285 21.062L13.4638 22.8307C14.6156 23.1955 15.8182 22.4156 15.8182 21.3037V3.65628Z"/>
    </symbol>

    <symbol viewBox="0 0 5 9" id="angleR">
        <path d="M1 8L4 4.5L1 1"/>
    </symbol>

    <symbol viewBox="0 0 8 8" id="cross">
        <path d="M0.498157 0.596118L0.543544 0.543544C0.70996 0.377127 0.970375 0.361998 1.15388 0.498157L1.20646 0.543544L4 3.33687L6.79354 0.543544C6.9766 0.360485 7.2734 0.360485 7.45646 0.543544C7.63951 0.726602 7.63951 1.0234 7.45646 1.20646L4.66313 4L7.45646 6.79354C7.62287 6.95996 7.638 7.22038 7.50184 7.40388L7.45646 7.45646C7.29004 7.62287 7.02962 7.638 6.84612 7.50184L6.79354 7.45646L4 4.66313L1.20646 7.45646C1.0234 7.63951 0.726602 7.63951 0.543544 7.45646C0.360485 7.2734 0.360485 6.9766 0.543544 6.79354L3.33687 4L0.543544 1.20646C0.377127 1.04004 0.361998 0.779625 0.498157 0.596118L0.543544 0.543544L0.498157 0.596118Z"/>
        <path d="M0.498157 0.596118L0.543544 0.543544C0.70996 0.377127 0.970375 0.361998 1.15388 0.498157L1.20646 0.543544L4 3.33688L6.79354 0.543544C6.9766 0.360485 7.2734 0.360485 7.45646 0.543544C7.63951 0.726602 7.63951 1.0234 7.45646 1.20646L4.66312 4L7.45646 6.79354C7.62287 6.95996 7.638 7.22038 7.50184 7.40388L7.45646 7.45646C7.29004 7.62287 7.02962 7.638 6.84612 7.50184L6.79354 7.45646L4 4.66312L1.20646 7.45646C1.0234 7.63951 0.726602 7.63951 0.543544 7.45646C0.360485 7.2734 0.360485 6.9766 0.543544 6.79354L3.33688 4L0.543544 1.20646C0.377127 1.04004 0.361998 0.779625 0.498157 0.596118ZM0.498157 0.596118L0.543544 0.543544L0.498157 0.596118Z" stroke-width="0.5"/>
    </symbol>

    <symbol viewBox="0 0 14 14" id="google">
        <path d="M2.99992 6.99992C2.99992 9.20906 4.79078 10.9999 6.99992 10.9999C8.74154 10.9999 10.2232 9.88684 10.7723 8.33325H6.99992V5.66659H13.5364V8.33325H13.5332C12.9155 11.3762 10.2252 13.6666 6.99992 13.6666C3.31802 13.6666 0.333252 10.6818 0.333252 6.99992C0.333252 3.31802 3.31802 0.333252 6.99992 0.333252C9.29657 0.333252 11.322 1.49458 12.5209 3.26204L10.3359 4.79202C9.61964 3.712 8.39294 2.99992 6.99992 2.99992C4.79078 2.99992 2.99992 4.79078 2.99992 6.99992Z"/>
    </symbol>

    <symbol viewBox="0 0 9 16" id="facebook">
        <path d="M5.39327 15.9999V8.70155H7.84305L8.20982 5.85726H5.39327V4.04126C5.39327 3.21779 5.62197 2.65655 6.80293 2.65655L8.3091 2.65585V0.111955C8.04849 0.0774178 7.15448 0 6.11437 0C3.94281 0 2.45611 1.32545 2.45611 3.75971V5.85733H0V8.70163H2.45604V16L5.39327 15.9999Z"/>
    </symbol>

    <symbol viewBox="0 0 16 13" id="twitter">
        <path d="M14.4695 3.19485C14.4695 3.33913 14.4695 3.48341 14.4695 3.60709C14.4695 7.87375 11.2128 12.8 5.27655 12.8C3.44209 12.8 1.75192 12.2641 0.309082 11.3572C0.556425 11.3778 0.82438 11.3984 1.07172 11.3984C2.57639 11.3984 3.978 10.8831 5.09105 10.0174C3.66882 9.99678 2.47333 9.04863 2.08171 7.77069C2.28783 7.81192 2.47333 7.83253 2.70006 7.83253C2.98863 7.83253 3.2772 7.7913 3.54515 7.70886C2.06109 7.42029 0.948051 6.12174 0.948051 4.55523C0.948051 4.53462 0.948051 4.53462 0.948051 4.51401C1.3809 4.76135 1.87559 4.90564 2.4115 4.92625C1.5458 4.34911 0.968663 3.35974 0.968663 2.22609C0.968663 1.62834 1.13356 1.07182 1.40151 0.597746C2.98863 2.55588 5.37961 3.83382 8.05916 3.9781C7.99733 3.75137 7.97671 3.48341 7.97671 3.23607C7.97671 1.44283 9.41955 0 11.2128 0C12.1403 0 12.9854 0.391626 13.5625 1.00998C14.3046 0.865701 14.9848 0.597746 15.6237 0.226731C15.3764 0.989372 14.8611 1.60773 14.2015 2.01997C14.8611 1.93752 15.4795 1.77262 16.0566 1.50467C15.6443 2.16425 15.1084 2.74138 14.4695 3.19485Z"/>
    </symbol>

    <symbol viewBox="0 0 16 16" id="instagram">
        <path d="M5.03502 7.46667C5.03502 6.09214 6.14903 4.97758 7.52361 4.97758C8.89818 4.97758 10.0128 6.09214 10.0128 7.46667C10.0128 8.84119 8.89818 9.95575 7.52361 9.95575C6.14903 9.95575 5.03502 8.84119 5.03502 7.46667ZM3.68941 7.46667C3.68941 9.58421 5.40597 11.3007 7.52361 11.3007C9.64124 11.3007 11.3578 9.58421 11.3578 7.46667C11.3578 5.34912 9.64124 3.63262 7.52361 3.63262C5.40597 3.63262 3.68941 5.34912 3.68941 7.46667ZM10.6136 3.4806C10.6135 3.65781 10.666 3.83107 10.7644 3.97845C10.8628 4.12584 11.0027 4.24074 11.1664 4.30862C11.3301 4.3765 11.5102 4.39432 11.684 4.35981C11.8579 4.32531 12.0176 4.24004 12.1429 4.11478C12.2683 3.98952 12.3537 3.82991 12.3883 3.65611C12.423 3.48232 12.4053 3.30216 12.3376 3.13841C12.2698 2.97466 12.155 2.83468 12.0077 2.73616C11.8604 2.63765 11.6872 2.58503 11.5099 2.58496H11.5096C11.272 2.58507 11.0443 2.67946 10.8762 2.84739C10.7082 3.01532 10.6138 3.24306 10.6136 3.4806ZM4.50695 13.5444C3.77895 13.5112 3.38326 13.3899 3.12031 13.2875C2.77169 13.1518 2.52295 12.9901 2.26143 12.729C1.9999 12.4678 1.83802 12.2193 1.7029 11.8707C1.60039 11.6079 1.47913 11.2121 1.44603 10.4842C1.40983 9.69711 1.40261 9.46068 1.40261 7.46673C1.40261 5.47277 1.41043 5.237 1.44603 4.4493C1.47919 3.72133 1.60135 3.32631 1.7029 3.06271C1.83862 2.7141 2.00026 2.46537 2.26143 2.20386C2.52259 1.94235 2.77109 1.78047 3.12031 1.64535C3.38314 1.54285 3.77895 1.42159 4.50695 1.3885C5.29403 1.3523 5.53046 1.34508 7.52361 1.34508C9.51675 1.34508 9.75342 1.3529 10.5412 1.3885C11.2692 1.42165 11.6642 1.54381 11.9278 1.64535C12.2764 1.78047 12.5252 1.94271 12.7867 2.20386C13.0482 2.46502 13.2095 2.7141 13.3452 3.06271C13.4477 3.32553 13.569 3.72133 13.6021 4.4493C13.6383 5.237 13.6455 5.47277 13.6455 7.46673C13.6455 9.46068 13.6383 9.69645 13.6021 10.4842C13.5689 11.2121 13.4471 11.6078 13.3452 11.8707C13.2095 12.2193 13.0478 12.4681 12.7867 12.729C12.5255 12.9899 12.2764 13.1518 11.9278 13.2875C11.665 13.39 11.2692 13.5113 10.5412 13.5444C9.75408 13.5806 9.51764 13.5878 7.52361 13.5878C5.52957 13.5878 5.29379 13.5806 4.50695 13.5444ZM4.44513 0.0452181C3.65022 0.0814165 3.10705 0.207454 2.63268 0.39203C2.14142 0.582639 1.72554 0.838357 1.30996 1.25327C0.894374 1.66817 0.639303 2.08469 0.448686 2.57594C0.264103 3.05058 0.13806 3.59344 0.101861 4.38831C0.0650634 5.18444 0.0566406 5.43896 0.0566406 7.46667C0.0566406 9.49437 0.0650634 9.7489 0.101861 10.545C0.13806 11.34 0.264103 11.8828 0.448686 12.3574C0.639303 12.8483 0.894434 13.2653 1.30996 13.6801C1.72548 14.0948 2.14142 14.3502 2.63268 14.5413C3.10794 14.7259 3.65022 14.8519 4.44513 14.8881C5.2417 14.9243 5.49582 14.9333 7.52361 14.9333C9.55139 14.9333 9.80593 14.9249 10.6021 14.8881C11.397 14.8519 11.9399 14.7259 12.4145 14.5413C12.9055 14.3502 13.3217 14.095 13.7373 13.6801C14.1528 13.2652 14.4074 12.8483 14.5985 12.3574C14.7831 11.8828 14.9097 11.3399 14.9454 10.545C14.9816 9.7483 14.99 9.49437 14.99 7.46667C14.99 5.43896 14.9816 5.18444 14.9454 4.38831C14.9092 3.59338 14.7831 3.05028 14.5985 2.57594C14.4074 2.08499 14.1522 1.66883 13.7373 1.25327C13.3223 0.8377 12.9055 0.582639 12.4151 0.39203C11.9399 0.207454 11.397 0.0808192 10.6027 0.0452181C9.80653 0.00901974 9.55199 0 7.5242 0C5.49641 0 5.2417 0.0084224 4.44513 0.0452181Z"/>
    </symbol>

    <symbol viewBox="0 0 21 12" id="vkontakte">
        <path fill-rule="evenodd" clip-rule="evenodd" d="M19.7917 0.794471C19.9326 0.336562 19.7917 0 19.1211 0H16.9039C16.3401 0 16.0804 0.290709 15.9395 0.611368C15.9395 0.611368 14.8119 3.29043 13.2145 5.03067C12.6978 5.53443 12.4629 5.69453 12.181 5.69453C12.0401 5.69453 11.8361 5.53443 11.8361 5.07652V0.794471C11.8361 0.244857 11.6725 0 11.2026 0H7.71846C7.36625 0 7.15435 0.255046 7.15435 0.496814C7.15435 1.01787 7.95285 1.13798 8.0352 2.60341V5.78639C8.0352 6.48421 7.90597 6.61081 7.62407 6.61081C6.87245 6.61081 5.04422 3.91955 3.9597 0.840323C3.74717 0.241769 3.534 0 2.96735 0H0.750168C0.116686 0 -0.0100098 0.290709 -0.0100098 0.611368C-0.0100098 1.18383 0.741774 4.0233 3.48997 7.77858C5.32232 10.3429 7.90344 11.7333 10.2524 11.7333C11.6619 11.7333 11.8361 11.4246 11.8361 10.8927V8.95439C11.8361 8.33684 11.9696 8.21364 12.4157 8.21364C12.7448 8.21364 13.3085 8.37389 14.624 9.61037C16.1273 11.0756 16.375 11.7333 17.2207 11.7333H19.4379C20.0713 11.7333 20.3881 11.4246 20.2053 10.8152C20.0055 10.2078 19.2877 9.32692 18.3353 8.28234C17.8185 7.68688 17.0433 7.04571 16.8086 6.72521C16.4797 6.313 16.5736 6.12989 16.8086 5.76369C16.8086 5.76369 19.5098 2.05411 19.7917 0.794625V0.794471Z"/>
    </symbol>

    <symbol viewBox="0 0 9 14" id="odnoklassniki">
        <path d="M4.27235 2.0974C5.08946 2.0974 5.7541 2.76205 5.7541 3.57915C5.7541 4.39557 5.08928 5.06022 4.27235 5.06022C3.45576 5.06022 2.79094 4.39557 2.79094 3.57915C2.79077 2.76188 3.45593 2.0974 4.27235 2.0974ZM4.27235 7.1566C6.24608 7.1566 7.85116 5.55202 7.85116 3.57915C7.85116 1.60526 6.24625 0 4.27235 0C2.2988 0 0.69354 1.60543 0.69354 3.57915C0.69354 5.55202 2.2988 7.1566 4.27235 7.1566ZM5.72018 10.0757C6.4564 9.90806 7.15898 9.61715 7.79823 9.21529C8.03357 9.06722 8.20044 8.83174 8.26216 8.56063C8.32387 8.28953 8.27536 8.00502 8.1273 7.76968C8.05408 7.65304 7.95857 7.55198 7.84626 7.47227C7.73394 7.39257 7.60701 7.33579 7.47274 7.30518C7.33846 7.27457 7.19946 7.27073 7.0637 7.29388C6.92794 7.31703 6.79807 7.36672 6.68152 7.4401C5.21536 8.36187 3.32831 8.36118 1.86335 7.4401C1.74683 7.3667 1.61697 7.317 1.48122 7.29383C1.34546 7.27067 1.20648 7.27451 1.0722 7.30512C0.937935 7.33573 0.811018 7.39252 0.698719 7.47224C0.586419 7.55195 0.49094 7.65303 0.417746 7.76968C0.269641 8.00496 0.221052 8.28942 0.282666 8.56052C0.344281 8.83162 0.511052 9.06714 0.7463 9.21529C1.3855 9.617 2.08794 9.9079 2.82401 10.0757L0.823386 12.0767C0.62678 12.2734 0.516355 12.5401 0.516403 12.8182C0.516451 13.0963 0.626968 13.3629 0.823642 13.5596C1.02032 13.7562 1.28704 13.8666 1.56513 13.8665C1.84322 13.8665 2.1099 13.756 2.30651 13.5593L4.27201 11.5935L6.23871 13.5595C6.33595 13.6569 6.45144 13.7341 6.57857 13.7868C6.70569 13.8395 6.84197 13.8667 6.97959 13.8667C7.11721 13.8667 7.25348 13.8395 7.38061 13.7868C7.50773 13.7341 7.62322 13.6569 7.72046 13.5595C7.81799 13.4622 7.89537 13.3467 7.94817 13.2195C8.00097 13.0923 8.02815 12.956 8.02815 12.8183C8.02815 12.6805 8.00097 12.5442 7.94817 12.417C7.89537 12.2898 7.81799 12.1743 7.72046 12.077L5.72018 10.0757Z"/>
    </symbol>

    <symbol viewBox="0 0 19 13" id="youtube">
        <path fill-rule="evenodd" clip-rule="evenodd" d="M16.582 0.391529C17.365 0.602353 17.9824 1.21976 18.1933 2.00282C18.5848 3.43341 18.5697 6.41506 18.5697 6.41506C18.5697 6.41506 18.5697 9.38165 18.1933 10.8122C17.9824 11.5953 17.365 12.2127 16.582 12.4235C15.1514 12.8 9.42904 12.8 9.42904 12.8C9.42904 12.8 3.72174 12.8 2.27609 12.4085C1.49304 12.1976 0.875624 11.5802 0.664801 10.7972C0.28833 9.38165 0.28833 6.4 0.28833 6.4C0.28833 6.4 0.28833 3.43341 0.664801 2.00282C0.875624 1.21976 1.50809 0.587294 2.27609 0.376471C3.70668 0 9.42904 0 9.42904 0C9.42904 0 15.1514 0 16.582 0.391529ZM12.365 6.39985L7.60646 9.14056V3.65915L12.365 6.39985Z"/>
    </symbol>

    <symbol viewBox="0 0 16 16" id="play">
        <path d="M12.5 7.13398C13.1667 7.51888 13.1667 8.48113 12.5 8.86603L5 13.1962C4.33333 13.5811 3.5 13.0999 3.5 12.3301L3.5 3.66987C3.5 2.90007 4.33333 2.41895 5 2.80385L12.5 7.13398Z"/>
    </symbol>

    <symbol viewBox="0 0 16 12" id="photo">
        <path d="M2.26415 12H13.7358C14.3363 12 14.9122 11.7679 15.3368 11.3547C15.7615 10.9415 16 10.3811 16 9.79682V3.48837C16 2.90405 15.7615 2.34366 15.3368 1.93049C14.9122 1.51731 14.3363 1.28519 13.7358 1.28519H11.1208C11.0007 0.91367 10.7623 0.588927 10.4401 0.357901C10.1179 0.126875 9.72853 0.0015351 9.3283 0H6.67924C6.27901 0.0015351 5.88965 0.126875 5.56744 0.357901C5.24523 0.588927 5.00686 0.91367 4.88679 1.28519H2.26415C1.66366 1.28519 1.08776 1.51731 0.663154 1.93049C0.238544 2.34366 0 2.90405 0 3.48837V9.79682C0 10.3811 0.238544 10.9415 0.663154 11.3547C1.08776 11.7679 1.66366 12 2.26415 12ZM8 2.63648C8.76799 2.63648 9.51873 2.85808 10.1573 3.27326C10.7958 3.68844 11.2935 4.27856 11.5874 4.96898C11.8813 5.6594 11.9582 6.41912 11.8084 7.15207C11.6586 7.88502 11.2888 8.55828 10.7457 9.08671C10.2027 9.61513 9.51077 9.975 8.75754 10.1208C8.00431 10.2666 7.22356 10.1918 6.51403 9.90577C5.8045 9.61979 5.19806 9.1355 4.77139 8.51413C4.34472 7.89277 4.11698 7.16224 4.11698 6.41493C4.11848 5.41344 4.52812 4.45341 5.25606 3.74542C5.984 3.03743 6.97079 2.63928 8 2.63831V2.63648Z"/>
    </symbol>

    <svg viewBox="0 0 16 16" id="report">
        <path fill-rule="evenodd" clip-rule="evenodd" d="M2 1C2 0.447715 2.44772 0 3 0H13C13.5523 0 14 0.447715 14 1V3C14 3.55228 13.5523 4 13 4H3C2.44772 4 2 3.55228 2 3V1ZM0 7C0 6.44772 0.447715 6 1 6H15C15.5523 6 16 6.44772 16 7V9C16 9.55229 15.5523 10 15 10H1C0.447715 10 0 9.55229 0 9V7ZM3 12C2.44772 12 2 12.4477 2 13V15C2 15.5523 2.44772 16 3 16H13C13.5523 16 14 15.5523 14 15V13C14 12.4477 13.5523 12 13 12H3Z"/>
    </svg>

    <symbol viewBox="0 0 16 16" id="calendar">
        <path d="M1.3408 5.94653H0.501953C0.225811 5.94653 0.00195312 6.17039 0.00195312 6.44653V13.9446C0.00195312 15.4446 1.00195 15.9465 2.00195 15.9465H14.002C15.502 15.9465 15.9693 15.4446 15.9693 13.9446L15.9693 6.44653C15.9693 6.17039 15.7454 5.94653 15.4693 5.94653H14.6304H1.3408ZM4.00049 8.44653C4.00049 8.17039 4.22435 7.94653 4.50049 7.94653H11.5004C11.7766 7.94653 12.0004 8.17046 12.0004 8.44665L12.0001 9.50012C12.0001 9.77621 11.7762 10 11.5001 10H4.50049C4.22435 10 4.00049 9.77614 4.00049 9.5V8.44653ZM4.00049 11.5C4.00049 11.2239 4.22435 11 4.50049 11H11.502C11.7781 11 12.002 11.2239 12.002 11.5V12.4465C12.002 12.7227 11.7781 12.9465 11.502 12.9465H4.50049C4.22435 12.9465 4.00049 12.7227 4.00049 12.4465V11.5Z"/>
        <path d="M3 1.00026V2.94516H0.9673C0.433828 2.94516 0 3.3714 0 3.89528V5H1.33885H14.6609H16V3.89528C16 3.3716 15.5662 2.94537 15.0327 2.94537L14.1197 2.94524L12.9655 2.94511V1L11 1.00026V2.94516H4.96552V1.00026H3Z"/>
    </symbol>

    <symbol viewBox="0 0 49 49" id="logoYT">
        <rect style="fill: currentColor" x="12.25" y="14.7" width="23.275" height="19.6"/>
        <path d="M44.4677 16.3329C44.4677 16.3329 44.0593 13.5358 42.8343 12.3108C41.3031 10.6775 39.5677 10.6775 38.751 10.5754C33.0752 10.1671 24.5002 10.2079 24.5002 10.2079C24.5002 10.2079 15.966 10.1671 10.2697 10.5754C9.45308 10.6775 7.73808 10.6775 6.18641 12.3108C4.96141 13.5358 4.55308 16.3329 4.55308 16.3329C4.55308 16.3329 4.14475 19.6608 4.0835 22.9275V26.3983C4.14475 29.665 4.55308 32.9317 4.55308 32.9317C4.55308 32.9317 4.96141 35.79 6.18641 37.015C7.73808 38.6483 9.75933 38.5667 10.6781 38.7504C13.8835 39.0567 24.1531 39.1179 24.5002 39.1179C24.5002 39.1179 33.0752 39.1179 38.7918 38.7096C39.5677 38.6279 41.3031 38.6279 42.8752 36.9946C44.1002 35.7696 44.5085 32.9521 44.5085 32.9521C44.5085 32.9521 44.9168 29.6854 44.9168 26.3779V22.9071C44.876 19.6404 44.4677 16.3329 44.4677 16.3329ZM20.376 30.6246V18.7013L31.2989 24.8875L20.3556 30.6246H20.376Z"/>
    </symbol>

    <symbol viewBox="0 0 11 20" id="angleLg">
        <path d="M10.7071 19.7071C11.0976 19.3166 11.0976 18.6834 10.7071 18.2929L2.41421 10L10.7071 1.70711C11.0976 1.31658 11.0976 0.683418 10.7071 0.292892C10.3166 -0.0976315 9.68342 -0.0976315 9.29289 0.292892L0.292894 9.29289C-0.097631 9.68342 -0.097631 10.3166 0.292894 10.7071L9.29289 19.7071C9.68342 20.0976 10.3166 20.0976 10.7071 19.7071Z"/>
    </symbol>

    <symbol viewBox="0 0 16 16" id="union">
        <path fill-rule="evenodd" clip-rule="evenodd" d="M1 0C0.447715 0 0 0.447715 0 1V3C0 3.55228 0.447715 4 1 4H3C3.55228 4 4 3.55228 4 3V1C4 0.447715 3.55228 0 3 0H1ZM1 6C0.447715 6 0 6.44772 0 7V9C0 9.55229 0.447715 10 1 10H3C3.55228 10 4 9.55229 4 9V7C4 6.44772 3.55228 6 3 6H1ZM0 13C0 12.4477 0.447715 12 1 12H3C3.55228 12 4 12.4477 4 13V15C4 15.5523 3.55228 16 3 16H1C0.447715 16 0 15.5523 0 15V13ZM7 0C6.44772 0 6 0.447715 6 1V3C6 3.55228 6.44772 4 7 4H15C15.5523 4 16 3.55228 16 3V1C16 0.447715 15.5523 0 15 0H7ZM6 7C6 6.44772 6.44772 6 7 6H11C11.5523 6 12 6.44772 12 7V9C12 9.55229 11.5523 10 11 10H7C6.44772 10 6 9.55229 6 9V7ZM7 12C6.44772 12 6 12.4477 6 13V15C6 15.5523 6.44772 16 7 16H15C15.5523 16 16 15.5523 16 15V13C16 12.4477 15.5523 12 15 12H7Z"/>
    </symbol>

    <svg viewBox="0 0 16 16" id="chart">
        <path fill-rule="evenodd" clip-rule="evenodd" d="M12 15C12 15.5523 12.4477 16 13 16H15C15.5523 16 16 15.5523 16 15V1C16 0.447715 15.5523 0 15 0H13C12.4477 0 12 0.447715 12 1L12 15ZM1 16C0.447715 16 0 15.5523 0 15V6C0 5.44771 0.447715 5 1 5H3C3.55228 5 4 5.44772 4 6L4 15C4 15.5523 3.55229 16 3 16H1ZM7 16C6.44772 16 6 15.5523 6 15L6 10C6 9.44771 6.44771 9 7 9H9C9.55229 9 10 9.44771 10 10V15C10 15.5523 9.55229 16 9 16H7Z"/>
    </svg>

</svg>
