<svg xmlns="http://www.w3.org/2000/svg">

    <symbol viewBox="0 0 50 92" id="0">
        <path d="M4.92999 83.56C0.489993 76.93 0 57.77 0 45.63C0 33.49 0.489993 14.34 4.92999 7.7C9.10999 1.46 17.07 0 24.64 0C32.21 0 40.18 1.46 44.35 7.7C48.79 14.33 49.28 33.49 49.28 45.63C49.28 57.77 48.79 76.92 44.35 83.56C40.17 89.8 32.21 91.26 24.64 91.26C17.07 91.27 9.09999 89.8 4.92999 83.56ZM16.18 76.89C16.18 80.58 18.46 83.31 24.65 83.31C30.84 83.31 33.12 80.58 33.12 76.89V14.39C33.12 10.7 30.84 7.97 24.65 7.97C18.46 7.97 16.18 10.7 16.18 14.39V76.89Z"/>
    </symbol>

    <symbol viewBox="0 0 22 90" id="1">
        <path d="M21.02 89.58V0H1.75L0 6.53C3.61 7.5 6.13 10.77 6.13 14.52V89.59H21.02V89.58Z"/>
    </symbol>

    <symbol viewBox="0 0 48 91" id="2">
        <path d="M15.78 80.4C15.78 74.24 20.16 70.76 28.89 64.86C37.86 58.81 47.56 54.88 47.56 29.73C47.56 19.86 46.23 11.79 43.49 7.7C39.32 1.46 31.36 0 23.78 0C16.21 0 8.24 1.46 4.07 7.7C1.33 11.8 0 19.87 0 29.73H15.32V14.38C15.32 10.69 17.6 7.96 23.79 7.96C29.98 7.96 32.26 10.69 32.26 14.38V34.07C32.26 47.69 29.66 49.31 19.66 56.45C10.9 62.7 0 68.77 0 80.54V90.42H47.57V80.41L15.78 80.4Z"/>
    </symbol>

    <symbol viewBox="0 0 48 92" id="3">
        <path d="M39.4 37.1C43.83 33.95 46.22 28.7 46.22 20.81C46.22 15.53 45.1 10.09 43.28 7.37C39.1 1.14 32.24 0 23.89 0C15.54 0 8.68 1.14 4.5 7.38C2.68 10.1 1.56001 15.53 1.56001 20.82H15.43V14.38C15.43 10.69 17.71 7.96 23.9 7.96C30.09 7.96 32.37 10.69 32.37 14.38V27.26C32.37 30.95 30.09 33.68 23.9 33.68H17.25V41.63H23.9C30.09 41.63 32.37 44.36 32.37 48.05V76.88C32.37 80.57 30.09 83.3 23.9 83.3C17.71 83.3 15.43 80.57 15.43 76.88V61.52H0C0 71.39 1.11001 79.46 3.85001 83.56C8.03001 89.8 16.31 91.26 23.89 91.26C31.46 91.26 39.43 89.8 43.6 83.56C46.34 79.46 47.91 70.58 47.91 61.52C47.91 47.17 45.15 40.31 39.4 37.1Z"/>
    </symbol>

    <symbol viewBox="0 0 55 90" id="4">
        <path d="M54.81 64.64H49.17V35.22H34.28V64.64H15.76C18.23 41.93 24.02 20.21 32.65 0H17.76C7.87001 23.14 1.72 48.25 0 74.57H34.27V89.58H49.16V74.58H54.8V64.64H54.81Z"/>
    </symbol>

    <symbol viewBox="0 0 49 91" id="5">
        <path d="M44.57 34.96C41.22 28.72 34.54 26.59 28.76 26.59C22.77 26.59 18.65 27.85 15.54 31.24V9.94H45.38V0H0.649994V40.86H15.58C15.89 37.57 18.26 35.21 24.01 35.21C30.2 35.21 32.48 37.94 32.48 41.63V76.04C32.48 79.73 30.19 82.46 24 82.46C17.81 82.46 15.53 79.73 15.53 76.04V60.68H0C0 70.55 1.21999 78.62 3.95999 82.72C8.13999 88.96 16.43 90.42 24 90.42C31.57 90.42 39.54 88.96 43.71 82.72C46.67 78.29 48.35 68.28 48.35 58.51C48.35 45.83 46.77 39.06 44.57 34.96Z"/>
    </symbol>

    <symbol viewBox="0 0 49 92" id="6">
        <path d="M4.92001 83.55C9.10001 89.79 17.06 91.25 24.63 91.25C32.66 91.25 40.27 89.89 44.44 83.65C47.18 79.55 48.97 73.22 48.97 61.52C48.97 49.81 47.39 43.58 45.19 39.48C41.84 33.24 35.16 31.11 29.38 31.11C23.39 31.11 19.27 32.37 16.16 35.76V14.38C16.16 10.69 18.44 7.96 24.63 7.96C30.82 7.96 33.1 10.69 33.1 14.38V20.82H46.97C46.97 3.97 38.8 0 24.64 0C17.07 0 9.10002 1.46 4.93002 7.7C0.490023 14.33 0 33.49 0 45.63C0 57.77 0.480013 76.92 4.92001 83.55ZM16.17 46.16C16.17 42.47 18.45 39.74 24.64 39.74C30.83 39.74 33.11 42.47 33.11 46.16V76.88C33.11 80.57 30.83 83.3 24.64 83.3C18.45 83.3 16.17 80.57 16.17 76.88V46.16Z"/>
    </symbol>

    <symbol viewBox="0 0 46 90" id="7">
        <path d="M0 0V9.94H30.55C21.31 34.73 16.25 61.56 16.25 89.58H31.14C31.14 61.57 36.19 34.74 45.43 9.95V0H0Z"/>
    </symbol>

    <symbol viewBox="0 0 49 92" id="8">
        <path d="M39.52 37.1C43.95 33.95 46.35 28.7 46.35 20.81C46.35 15.53 45.22 10.09 43.41 7.37C39.23 1.14 32.37 0 24.02 0C15.67 0 8.81001 1.14 4.63 7.38C2.81 10.1 1.69 15.53 1.69 20.82C1.69 28.71 4.08001 33.95 8.51001 37.11C2.76001 40.31 0 47.18 0 61.53C0 86.34 7.66002 91.27 24.02 91.27C40.37 91.27 48.04 86.35 48.04 61.53C48.04 47.17 45.27 40.3 39.52 37.1ZM15.55 14.38C15.55 10.69 17.83 7.96 24.02 7.96C30.21 7.96 32.49 10.69 32.49 14.38V27.26C32.49 30.95 30.21 33.68 24.02 33.68C17.83 33.68 15.55 30.95 15.55 27.26V14.38ZM32.48 76.88C32.48 80.57 30.2 83.3 24.01 83.3C17.82 83.3 15.54 80.57 15.54 76.88V48.05C15.54 44.36 17.82 41.63 24.01 41.63C30.2 41.63 32.48 44.36 32.48 48.05V76.88Z"/>
    </symbol>

    <symbol viewBox="0 0 49 92" id="9">
        <path d="M44.06 7.7C39.88 1.46 31.92 0 24.34 0C16.31 0 8.69997 1.36 4.52997 7.6C1.78997 11.7 0 18.03 0 29.73C0 41.43 1.57997 47.67 3.77997 51.77C7.12997 58.01 13.81 60.14 19.59 60.14C25.58 60.14 29.7 58.88 32.81 55.49V76.88C32.81 80.57 30.53 83.3 24.34 83.3C18.15 83.3 15.87 80.57 15.87 76.88V70.44H2.00995C2.00995 87.29 10.18 91.26 24.34 91.26C31.91 91.26 39.88 89.8 44.05 83.56C48.49 76.93 48.98 57.77 48.98 45.63C48.99 33.49 48.5 14.33 44.06 7.7ZM32.81 45.1C32.81 48.79 30.53 51.52 24.34 51.52C18.15 51.52 15.87 48.79 15.87 45.1V14.38C15.87 10.69 18.15 7.96 24.34 7.96C30.53 7.96 32.81 10.69 32.81 14.38V45.1Z"/>
    </symbol>

</svg>
